# xmcd
#
# Track frame offsets:
#	150
#	8828
#	28679
#	46526
#	65147
#	83338
#	101573
#	121293
#	123964
#	144354
#	161188
#	180802
#	182660
#	201222
#	220046
#	239670
#	258279
#
# Disc length: 3588 seconds
#
# Revision: 2
# Processed by: cddbd v1.5.1PL2 Copyright (c) Steve Scherf et al.
# Submitted via: dBpowerAMP V4.0
#
DISCID=dc0e0211
DTITLE=Mr. Criminal - Criminal Mentality
DYEAR=1900
DGENRE=Gangsta
TTITLE0=01 - Intro
TTITLE1=02 - Criminal Life
TTITLE2=03 - Just Another Day
TTITLE3=04 - Winos Click
TTITLE4=05 - Keep Riding
TTITLE5=06 - For The Street
TTITLE6=07 - Maniac In Black
TTITLE7=08 - Interlude
TTITLE8=09 - Unfadeable
TTITLE9=10 - Stay Out Of The Game
TTITLE10=11 - On A Come Up 
TTITLE11=12 - Turn The System Around (skit)
TTITLE12=13 - Stay On The Streets
TTITLE13=14 - Gangster Groove
TTITLE14=15 - You Know How We Do It
TTITLE15=16 - Dedication To My Lady
TTITLE16=17 - Outro
EXTD=Good
EXTT0=
EXTT1=
EXTT2=
EXTT3=
EXTT4=
EXTT5=
EXTT6=
EXTT7=
EXTT8=
EXTT9=
EXTT10=
EXTT11=
EXTT12=
EXTT13=
EXTT14=
EXTT15=
EXTT16=
PLAYORDER=
